<svg width="17" height="13" viewBox="0 0 17 13" fill="none" xmlns="http://www.w3.org/2000/svg">
<path d="M0.78126 6.75412L6.53668 11.8928C6.64989 11.9934 6.7908 12.0432 6.93172 12.0432C7.0948 12.0432 7.2563 11.9767 7.37426 11.8461L16.2647 1.9495C16.3668 1.83629 16.4167 1.69537 16.4167 1.55367C16.4167 1.22196 16.1491 0.959915 15.8237 0.959915C15.6606 0.959915 15.4983 1.02642 15.3812 1.15704L6.8858 10.6135L1.57293 5.86825C1.45893 5.76771 1.31801 5.71783 1.17709 5.71783C0.846969 5.71783 0.583344 5.98383 0.583344 6.31079C0.583344 6.47387 0.649844 6.63696 0.78126 6.75412Z" fill="white"/>
</svg>
